<?xml version="1.0" encoding="UTF-8"?>
<svg id="Icon" xmlns="http://www.w3.org/2000/svg" viewBox="0 0 65 65">
  <defs>
    <style>
      .cls-1 {
        fill: none;
        isolation: isolate;
      }

      .cls-2 {
        fill: #fff;
      }

      .cls-3, .cls-4 {
        fill: #273579;
      }

      .cls-5 {
        fill: #37984a;
      }

      .cls-5, .cls-4 {
        fill-rule: evenodd;
      }
    </style>
  </defs>
  <circle class="cls-2" cx="32.5" cy="32.5" r="32.5"/>
  <g id="Shape_1" data-name="Shape 1" class="cls-1">
    <g id="Shape_1-2" data-name="Shape 1">
      <path class="cls-4" d="m38.45,42.18c-1.94-2.36-6.91-6.19-6.91-8.16v-7.56h1.05c.24,0,.42-.19.42-.42v-.98c0-.24-.19-.42-.42-.42h-8.96c-.24,0-.42.19-.42.42v.98c0,.24.19.42.42.42h1.06v7.56c0,1.97-4.98,5.8-6.91,8.16s-4.33,4.81-4.33,8.4,3.42,5.41,7.42,5.41h14.5c4.01,0,7.42-1.86,7.42-5.41.02-3.61-2.39-6.05-4.33-8.4Z"/>
    </g>
  </g>
  <g id="Shape_5" data-name="Shape 5" class="cls-1">
    <g id="Shape_5-2" data-name="Shape 5">
      <path class="cls-3" d="m32.63,16.86c1.15-2.46,5.08-4.27,5.08-4.27-6.39,1.21-9.38,8.5-9.38,8.5-1.52-3.36-5.19-2.8-5.19-2.8,4.76,1.65,4.1,6.51,4.1,6.51h1.65c1.65-11.84,14.62-5.94,14.62-5.94-4.57-3.68-10.88-2.01-10.88-2.01Z"/>
    </g>
  </g>
  <g id="Shape_6" data-name="Shape 6" class="cls-1">
    <g>
      <path class="cls-5" d="m50.84,15.87s-1.42-.4-2.06-.62-2.01-.59-3.02.27c-1.03.88-1.55,2.04-1.55,2.04,0,0,1.62,1.74,3.78,1.33,2.18-.39,2.85-3.02,2.85-3.02Z"/>
      <path class="cls-5" d="m45.21,12.58c2.14-.4,2.85-3.04,2.85-3.04,0,0-1.42-.4-2.06-.62s-2.01-.61-3.02.27c-1.03.88-1.55,2.04-1.55,2.04,0,0,1.6,1.74,3.78,1.35Z"/>
      <path class="cls-5" d="m44.75,20.54c-1.06-.54-2.19-.59-2.19-.59,0,0-.89,1.89.15,3.51,1.05,1.62,3.44,1.33,3.44,1.33,0,0-.15-1.28-.17-1.87-.02-.59-.17-1.82-1.23-2.38Z"/>
      <path class="cls-5" d="m41.28,9.05c.73-.66.57-1.69.47-2.18-.1-.47-.25-1.53-.25-1.53,0,0-1.96.27-2.43,1.8-.49,1.53.62,2.85.62,2.85,0,0,.86-.27,1.59-.94Z"/>
      <path class="cls-5" d="m37.79,9.98c.62-1.06.05-2.23-.25-2.77-.3-.54-.89-1.72-.89-1.72,0,0-2.23,1.08-2.23,3.09s1.82,3.15,1.82,3.15c0,0,.93-.69,1.55-1.75Z"/>
      <path class="cls-5" d="m31.77,8.68s-1.79,1.08-1.62,2.77,1.8,2.5,1.8,2.5c0,0,.74-.64,1.16-1.6.42-.93-.15-1.87-.44-2.29-.32-.4-.91-1.37-.91-1.37Z"/>
      <path class="cls-5" d="m28.8,12.53s-2.09.17-2.68,1.74.49,3.04.49,3.04c0,0,.93-.25,1.74-.89.81-.66.71-1.74.64-2.26-.08-.47-.19-1.62-.19-1.62Z"/>
      <path class="cls-5" d="m21.14,16.46c-.64-.81-1.72-.74-2.23-.67s-1.64.15-1.64.15c0,0,.13,2.09,1.69,2.72,1.55.64,3.04-.42,3.04-.42,0,0-.25-.96-.86-1.77Z"/>
      <path class="cls-5" d="m21.65,19.95c-.96.42-1.15,1.52-1.2,2.02-.07.51-.25,1.64-.25,1.64,0,0,2.06.39,3.07-.98,1-1.37.32-3.09.32-3.09,0,0-.98-.02-1.94.4Z"/>
      <path class="cls-5" d="m22.88,12.05s-1.62,1.37-1.2,3.02c.42,1.65,2.18,2.23,2.18,2.23,0,0,.64-.76.91-1.77.27-1.03-.42-1.86-.79-2.23-.35-.37-1.1-1.25-1.1-1.25Z"/>
      <path class="cls-5" d="m43.07,14.63s-.98-.71-1.4-1.05-1.37-1-2.38-.62c-1.03.39-1.74,1.13-1.74,1.13,0,0,.74,1.79,2.51,2.06,1.75.3,3-1.52,3-1.52Z"/>
      <path class="cls-5" d="m51.52,21.75c-.25-.49-.84-1.53-1.97-1.6s-2.13.32-2.13.32c0,0-.05,2.01,1.48,3.02,1.53,1.03,3.49-.15,3.49-.15,0,0-.62-1.1-.88-1.59Z"/>
      <path class="cls-5" d="m39.36,19.76c-1.06-.81-2.31-1.11-2.31-1.11,0,0-1.38,1.96-.54,3.98s3.58,2.18,3.58,2.18c0,0,.1-1.47.17-2.14.08-.67.17-2.09-.89-2.9Z"/>
    </g>
  </g>
</svg>