<svg width="600" height="600" viewBox="0 0 600 600" fill="none" xmlns="http://www.w3.org/2000/svg">
<path fill-rule="evenodd" clip-rule="evenodd" d="M346.8 288.7C337.7 277.6 314.3 259.6 314.3 250.3V214.8H319.2C320.3 214.8 321.2 213.9 321.2 212.8V208.2C321.2 207.1 320.3 206.2 319.2 206.2H277.1C276 206.2 275.1 207.1 275.1 208.2V212.8C275.1 213.9 276 214.8 277.1 214.8H282.1V250.3C282.1 259.6 258.7 277.6 249.6 288.7C240.5 299.8 229.2 311.3 229.2 328.2C229.2 345.1 245.3 353.7 264.1 353.7H332.3C351.2 353.7 367.2 345 367.2 328.2C367.3 311.3 355.9 299.8 346.8 288.7Z" fill="#2A337B"/>
<path d="M319.4 169.7C324.8 158.1 343.3 149.6 343.3 149.6C313.2 155.3 299.2 189.6 299.2 189.6C292.1 173.8 274.8 176.4 274.8 176.4C297.2 184.2 294.1 207 294.1 207H301.9C309.7 151.3 370.7 179.1 370.7 179.1C349.1 161.8 319.4 169.7 319.4 169.7Z" fill="#2A337B"/>
<path fill-rule="evenodd" clip-rule="evenodd" d="M405.1 165C405.1 165 398.4 163.1 395.4 162.1C392.4 161.1 386 159.3 381.2 163.4C376.4 167.5 373.9 173 373.9 173C373.9 173 381.5 181.2 391.7 179.3C401.9 177.4 405.1 165 405.1 165Z" fill="#35974A"/>
<path fill-rule="evenodd" clip-rule="evenodd" d="M378.6 149.5C388.7 147.6 392 135.2 392 135.2C392 135.2 385.3 133.3 382.3 132.3C379.3 131.3 372.9 129.5 368.1 133.6C363.3 137.7 360.8 143.2 360.8 143.2C360.8 143.2 368.4 151.4 378.6 149.5Z" fill="#35974A"/>
<path fill-rule="evenodd" clip-rule="evenodd" d="M376.5 187C371.5 184.5 366.2 184.2 366.2 184.2C366.2 184.2 362 193.1 366.9 200.7C371.8 208.3 383.1 207 383.1 207C383.1 207 382.4 201 382.3 198.2C382.2 195.4 381.5 189.6 376.5 187Z" fill="#35974A"/>
<path fill-rule="evenodd" clip-rule="evenodd" d="M360.1 133C363.5 129.9 362.8 125.1 362.3 122.8C361.8 120.6 361.1 115.6 361.1 115.6C361.1 115.6 351.9 116.9 349.7 124.1C347.4 131.3 352.6 137.5 352.6 137.5C352.6 137.5 356.7 136.1 360.1 133Z" fill="#35974A"/>
<path fill-rule="evenodd" clip-rule="evenodd" d="M343.7 137.3C346.6 132.3 343.9 126.8 342.5 124.3C341.1 121.8 338.3 116.2 338.3 116.2C338.3 116.2 327.8 121.3 327.8 130.7C327.8 140.1 336.4 145.5 336.4 145.5C336.4 145.5 340.8 142.3 343.7 137.3Z" fill="#35974A"/>
<path fill-rule="evenodd" clip-rule="evenodd" d="M315.4 131.2C315.4 131.2 307 136.3 307.8 144.2C308.6 152.1 316.3 155.9 316.3 155.9C316.3 155.9 319.8 152.9 321.8 148.4C323.8 144 321.1 139.6 319.7 137.6C318.2 135.7 315.4 131.2 315.4 131.2Z" fill="#35974A"/>
<path fill-rule="evenodd" clip-rule="evenodd" d="M301.4 149.3C301.4 149.3 291.6 150.1 288.8 157.5C286 164.9 291.1 171.8 291.1 171.8C291.1 171.8 295.5 170.6 299.3 167.6C303.1 164.5 302.6 159.4 302.3 157C301.9 154.7 301.4 149.3 301.4 149.3Z" fill="#35974A"/>
<path fill-rule="evenodd" clip-rule="evenodd" d="M265.4 167.8C262.4 164 257.3 164.3 254.9 164.6C252.5 164.9 247.2 165.3 247.2 165.3C247.2 165.3 247.8 175.1 255.1 178.1C262.4 181.1 269.4 176.1 269.4 176.1C269.4 176.1 268.3 171.6 265.4 167.8Z" fill="#35974A"/>
<path fill-rule="evenodd" clip-rule="evenodd" d="M267.8 184.2C263.3 186.2 262.4 191.3 262.2 193.7C261.9 196.1 261 201.4 261 201.4C261 201.4 270.7 203.2 275.4 196.8C280.1 190.4 276.9 182.3 276.9 182.3C276.9 182.3 272.3 182.2 267.8 184.2Z" fill="#35974A"/>
<path fill-rule="evenodd" clip-rule="evenodd" d="M273.6 147.1C273.6 147.1 266 153.5 268 161.3C270 169.1 278.2 171.8 278.2 171.8C278.2 171.8 281.2 168.2 282.5 163.5C283.8 158.7 280.5 154.8 278.8 153C277.1 151.2 273.6 147.1 273.6 147.1Z" fill="#35974A"/>
<path fill-rule="evenodd" clip-rule="evenodd" d="M368.5 159.2C368.5 159.2 363.9 155.9 361.9 154.3C359.9 152.7 355.5 149.6 350.7 151.4C345.9 153.2 342.5 156.7 342.5 156.7C342.5 156.7 346 165.1 354.3 166.4C362.7 167.8 368.5 159.2 368.5 159.2Z" fill="#35974A"/>
<path fill-rule="evenodd" clip-rule="evenodd" d="M408.3 192.7C407.1 190.4 404.3 185.5 399 185.2C393.7 184.9 389 186.7 389 186.7C389 186.7 388.8 196.1 396 200.9C403.2 205.7 412.4 200.2 412.4 200.2C412.4 200.2 409.5 195 408.3 192.7Z" fill="#35974A"/>
<path fill-rule="evenodd" clip-rule="evenodd" d="M351.1 183.3C346.1 179.5 340.2 178.1 340.2 178.1C340.2 178.1 333.7 187.3 337.7 196.8C341.7 206.3 354.5 207 354.5 207C354.5 207 355 200.1 355.3 196.9C355.7 193.8 356.1 187.1 351.1 183.3Z" fill="#35974A"/>
<path fill-rule="evenodd" clip-rule="evenodd" d="M346.8 288.7C337.7 277.6 314.3 259.6 314.3 250.3V214.8H319.2C320.3 214.8 321.2 213.9 321.2 212.8V208.2C321.2 207.1 320.3 206.2 319.2 206.2H277.1C276 206.2 275.1 207.1 275.1 208.2V212.8C275.1 213.9 276 214.8 277.1 214.8H282.1V250.3C282.1 259.6 258.7 277.6 249.6 288.7C240.5 299.8 229.2 311.3 229.2 328.2C229.2 345.1 245.3 353.7 264.1 353.7H332.3C351.2 353.7 367.2 345 367.2 328.2C367.3 311.3 355.9 299.8 346.8 288.7Z" fill="#2A337B"/>
<path fill-rule="evenodd" clip-rule="evenodd" d="M405.1 165C405.1 165 398.4 163.1 395.4 162.1C392.4 161.1 386 159.3 381.2 163.4C376.4 167.5 373.9 173 373.9 173C373.9 173 381.5 181.2 391.7 179.3C401.9 177.4 405.1 165 405.1 165Z" fill="#35974A"/>
<path fill-rule="evenodd" clip-rule="evenodd" d="M378.6 149.5C388.7 147.6 392 135.2 392 135.2C392 135.2 385.3 133.3 382.3 132.3C379.3 131.3 372.9 129.5 368.1 133.6C363.3 137.7 360.8 143.2 360.8 143.2C360.8 143.2 368.4 151.4 378.6 149.5Z" fill="#35974A"/>
<path fill-rule="evenodd" clip-rule="evenodd" d="M376.5 187C371.5 184.5 366.2 184.2 366.2 184.2C366.2 184.2 362 193.1 366.9 200.7C371.8 208.3 383.1 207 383.1 207C383.1 207 382.4 201 382.3 198.2C382.2 195.4 381.5 189.6 376.5 187Z" fill="#35974A"/>
<path fill-rule="evenodd" clip-rule="evenodd" d="M360.1 133C363.5 129.9 362.8 125.1 362.3 122.8C361.8 120.6 361.1 115.6 361.1 115.6C361.1 115.6 351.9 116.9 349.7 124.1C347.4 131.3 352.6 137.5 352.6 137.5C352.6 137.5 356.7 136.1 360.1 133Z" fill="#35974A"/>
<path fill-rule="evenodd" clip-rule="evenodd" d="M343.7 137.3C346.6 132.3 343.9 126.8 342.5 124.3C341.1 121.8 338.3 116.2 338.3 116.2C338.3 116.2 327.8 121.3 327.8 130.7C327.8 140.1 336.4 145.5 336.4 145.5C336.4 145.5 340.8 142.3 343.7 137.3Z" fill="#35974A"/>
<path fill-rule="evenodd" clip-rule="evenodd" d="M315.4 131.2C315.4 131.2 307 136.3 307.8 144.2C308.6 152.1 316.3 155.9 316.3 155.9C316.3 155.9 319.8 152.9 321.8 148.4C323.8 144 321.1 139.6 319.7 137.6C318.2 135.7 315.4 131.2 315.4 131.2Z" fill="#35974A"/>
<path fill-rule="evenodd" clip-rule="evenodd" d="M301.4 149.3C301.4 149.3 291.6 150.1 288.8 157.5C286 164.9 291.1 171.8 291.1 171.8C291.1 171.8 295.5 170.6 299.3 167.6C303.1 164.5 302.6 159.4 302.3 157C301.9 154.7 301.4 149.3 301.4 149.3Z" fill="#35974A"/>
<path fill-rule="evenodd" clip-rule="evenodd" d="M265.4 167.8C262.4 164 257.3 164.3 254.9 164.6C252.5 164.9 247.2 165.3 247.2 165.3C247.2 165.3 247.8 175.1 255.1 178.1C262.4 181.1 269.4 176.1 269.4 176.1C269.4 176.1 268.3 171.6 265.4 167.8Z" fill="#35974A"/>
<path fill-rule="evenodd" clip-rule="evenodd" d="M267.8 184.2C263.3 186.2 262.4 191.3 262.2 193.7C261.9 196.1 261 201.4 261 201.4C261 201.4 270.7 203.2 275.4 196.8C280.1 190.4 276.9 182.3 276.9 182.3C276.9 182.3 272.3 182.2 267.8 184.2Z" fill="#35974A"/>
<path fill-rule="evenodd" clip-rule="evenodd" d="M273.6 147.1C273.6 147.1 266 153.5 268 161.3C270 169.1 278.2 171.8 278.2 171.8C278.2 171.8 281.2 168.2 282.5 163.5C283.8 158.7 280.5 154.8 278.8 153C277.1 151.2 273.6 147.1 273.6 147.1Z" fill="#35974A"/>
<path fill-rule="evenodd" clip-rule="evenodd" d="M368.5 159.2C368.5 159.2 363.9 155.9 361.9 154.3C359.9 152.7 355.5 149.6 350.7 151.4C345.9 153.2 342.5 156.7 342.5 156.7C342.5 156.7 346 165.1 354.3 166.4C362.7 167.8 368.5 159.2 368.5 159.2Z" fill="#35974A"/>
<path fill-rule="evenodd" clip-rule="evenodd" d="M408.3 192.7C407.1 190.4 404.3 185.5 399 185.2C393.7 184.9 389 186.7 389 186.7C389 186.7 388.8 196.1 396 200.9C403.2 205.7 412.4 200.2 412.4 200.2C412.4 200.2 409.5 195 408.3 192.7Z" fill="#35974A"/>
<path fill-rule="evenodd" clip-rule="evenodd" d="M351.1 183.3C346.1 179.5 340.2 178.1 340.2 178.1C340.2 178.1 333.7 187.3 337.7 196.8C341.7 206.3 354.5 207 354.5 207C354.5 207 355 200.1 355.3 196.9C355.7 193.8 356.1 187.1 351.1 183.3Z" fill="#35974A"/>
<path d="M76.8999 436.5V358.7H94.9999C104.5 358.7 113.1 362.5 113.1 374.4V390.3C113.1 402.2 104.5 406 94.9999 406H92.2999V436.4H76.8999V436.5ZM92.2999 395H94.1999C96.6999 395 97.7999 393.8 97.7999 390.1V374.8C97.7999 371.1 96.6999 369.9 94.1999 369.9H92.2999V395Z" fill="#2A337B"/>
<path d="M119.8 436.5V358.7H133.7V379.5H134.2C134.7 375.7 139.6 373.3 143.3 373.3C152.1 373.3 152.5 379.7 152.5 387V436.6H138.6V388C138.6 386.5 137.9 384.7 136.1 384.7C134.2 384.7 133.7 386.4 133.7 388V436.6H119.8V436.5Z" fill="#2A337B"/>
<path d="M158.9 387.4C158.9 378 166.3 373.3 175.2 373.3C183.9 373.3 191.6 378 191.6 387.4V423.9C191.6 428.3 192.3 432.4 192.6 436.6H178.5L177.7 430.3H177.5C175.6 435.3 172.3 437.4 168.2 437.4C161.2 437.4 158.9 433.2 158.9 426.1V412.7C158.9 397 177.7 403 177.7 389.4V386.9C177.7 385.4 177 383.6 175.2 383.6C173.3 383.6 172.8 385.3 172.8 386.9V395.9H158.9V387.4ZM172.8 423.7C172.8 425.2 173.3 427 175.2 427C177.1 427 177.7 425.3 177.7 423.7V405.7L175.2 407.4C173.2 409.1 172.8 409.6 172.8 412.3V423.7Z" fill="#2A337B"/>
<path d="M211.9 379.4H212.1C214.2 375.6 217.2 373.3 222 373.3C228.9 373.3 230.6 377.5 230.6 384.2V407.7H216.7V387.9C216.7 386.4 216 384.6 214.2 384.6C212.3 384.6 211.8 386.3 211.8 387.9V436.5H198V374H211.9V379.4Z" fill="#2A337B"/>
<path d="M250.7 379.6H250.9C253.1 375.4 254.6 373.3 260.2 373.3C265.1 373.3 267.5 374.7 269.2 379.7C271.6 375.5 273.1 373.3 278.7 373.3C287.4 373.3 288.3 380.2 288.3 384.9V436.6H274.4V388C274.4 386.5 273.7 384.7 271.9 384.7C270.1 384.7 269.5 386.4 269.5 388V436.6H255.6V388C255.6 386.5 254.9 384.7 253.1 384.7C251.3 384.7 250.7 386.4 250.7 388V436.6H236.8V374H250.7V379.6Z" fill="#2A337B"/>
<path d="M294.5 387.4C294.5 378 301.9 373.3 310.8 373.3C319.5 373.3 327.2 378 327.2 387.4V423.9C327.2 428.3 327.9 432.4 328.2 436.6H314L313.2 430.3H313C311.1 435.3 307.8 437.4 303.7 437.4C296.7 437.4 294.4 433.2 294.4 426.1V412.7C294.4 397 313.2 403 313.2 389.4V386.9C313.2 385.4 312.5 383.6 310.7 383.6C308.8 383.6 308.3 385.3 308.3 386.9V395.9H294.4V387.4H294.5ZM308.3 423.7C308.3 425.2 308.8 427 310.7 427C312.6 427 313.2 425.3 313.2 423.7V405.7L310.7 407.4C308.7 409.1 308.3 409.6 308.3 412.3V423.7Z" fill="#2A337B"/>
<path d="M347.7 380.6H347.9C348.8 376.2 352.3 373.3 356.4 373.3C365 373.3 366.4 380.3 366.4 387.3V423.7C366.4 430.7 365 437.4 356.4 437.4C352.2 437.4 348.8 434.8 347.9 431.2H347.7V450.6H333.8V374H347.7V380.6ZM352.6 387.9C352.6 386.4 351.9 384.6 350.1 384.6C348.2 384.6 347.7 386.3 347.7 387.9V422.6C347.7 424.1 348.2 425.9 350.1 425.9C352 425.9 352.6 424.2 352.6 422.6V387.9Z" fill="#2A337B"/>
<path d="M373 436.5V358.7H386.9V436.5H373Z" fill="#2A337B"/>
<path d="M393.7 387.4C393.7 378 401.1 373.3 410 373.3C418.7 373.3 426.4 378 426.4 387.4V423.9C426.4 428.3 427.1 432.4 427.4 436.6H413.3L412.5 430.3H412.3C410.4 435.3 407.1 437.4 403 437.4C396 437.4 393.7 433.2 393.7 426.1V412.7C393.7 397 412.5 403 412.5 389.4V386.9C412.5 385.4 411.8 383.6 410 383.6C408.1 383.6 407.6 385.3 407.6 386.9V395.9H393.7V387.4ZM407.5 423.7C407.5 425.2 408 427 409.9 427C411.8 427 412.4 425.3 412.4 423.7V405.7L409.9 407.4C407.9 409.1 407.5 409.6 407.5 412.3V423.7Z" fill="#2A337B"/>
<path d="M446.6 379.5H446.8C447.7 375.7 452.5 373.3 456.2 373.3C465 373.3 465.4 379.7 465.4 387V436.6H451.5V388C451.5 386.5 450.8 384.7 449 384.7C447.1 384.7 446.6 386.4 446.6 388V436.6H432.7V374H446.6V379.5Z" fill="#2A337B"/>
<path d="M487.9 374H491.7V384.3H487.9V422C487.9 424 488.2 426.3 490.3 426.3H491.9V436.6H485.7C475.8 436.6 474 433.5 474 423.9V384.4H470.3V374H474V362.6H487.9V374Z" fill="#2A337B"/>
<path d="M495.6 374.1C495.6 365.9 502.1 361.2 509 361.2C515.9 361.2 522.4 365.9 522.4 374.1C522.4 382.3 515.9 387 509 387C502.1 387 495.6 382.3 495.6 374.1ZM509 364.4C503.9 364.4 499.8 368.3 499.8 374.1C499.8 379.9 503.9 383.8 509 383.8C514 383.8 518.2 379.8 518.2 374.1C518.2 368.3 514 364.4 509 364.4ZM507 381.1H503.8V367H509C512.7 367 514.9 368 514.9 371.3C514.9 373.9 513.4 374.9 510.9 375L514.5 381.1H511.3L508.1 375.3H507V381.1ZM509.6 372.7C510.8 372.7 511.5 372.4 511.5 371C511.5 369.6 509.9 369.6 508.9 369.6H506.9V372.8H509.6V372.7Z" fill="#2A337B"/>
</svg>
